<svg xmlns="http://www.w3.org/2000/svg" width="24" height="24" viewBox="0 0 24 24">
  <g id="Icons_WhatsApp" data-name="Icons/WhatsApp" transform="translate(1390 -2619)">
    <rect id="Container" width="24" height="24" transform="translate(-1390 2619)" fill="none"/>
    <path id="WhatsApp" d="M-15133.112-650.863h-.016a10.051,10.051,0,0,0-1.071.114,16.037,16.037,0,0,1-2.036.186,2.368,2.368,0,0,1-1.672-.5c-.661-.661-.548-1.953-.312-3.708a9.564,9.564,0,0,0,.113-1.087,9.951,9.951,0,0,1-.277-7.572,9.947,9.947,0,0,1,5.187-5.638,9.933,9.933,0,0,1,4.21-.935,10.06,10.06,0,0,1,5.327,1.531,9.969,9.969,0,0,1,3.761,4.271,10,10,0,0,1,.779,5.961,10,10,0,0,1-2.777,5.331,9.944,9.944,0,0,1-3.29,2.189,10.016,10.016,0,0,1-3.8.745A9.977,9.977,0,0,1-15133.112-650.863Zm.509-1.417a.115.115,0,0,0,.038.015,8.411,8.411,0,0,0,3.583.794,8.462,8.462,0,0,0,6.021-2.5,8.54,8.54,0,0,0,1.7-9.6,8.547,8.547,0,0,0-7.728-4.932,8.4,8.4,0,0,0-3.575.794,8.452,8.452,0,0,0-4.415,4.795,8.448,8.448,0,0,0,.273,6.508.39.39,0,0,1,.016.038,3.907,3.907,0,0,1-.042,1.793c-.072.513-.148,1.1-.171,1.6a2.454,2.454,0,0,0,.061.844,1.945,1.945,0,0,0,.6.065,14.693,14.693,0,0,0,1.839-.175,10.83,10.83,0,0,1,1.269-.125A1.391,1.391,0,0,1-15132.6-652.28Zm1.238-5.323c-3.624-3.628-3.2-5.54-2.613-6.36a2.965,2.965,0,0,1,2.2-1.406,1.963,1.963,0,0,1,1.266.483,3.834,3.834,0,0,1,1.433,1.824,1.914,1.914,0,0,1-.221,1.421c-.11.228-.148.327-.133.437.019.133.137.433.688.988.627.627.935.7,1.037.7a1.006,1.006,0,0,0,.388-.141,2.192,2.192,0,0,1,.988-.277c.722,0,1.4.445,2.257,1.489a1.94,1.94,0,0,1,.452,1.6,3.2,3.2,0,0,1-1.383,1.873,2.215,2.215,0,0,1-1.288.376C-15127.672-654.606-15129.374-655.612-15131.365-657.6Zm-1.359-5.54a.316.316,0,0,1-.031.046c-.308.429-.137,1.847,2.451,4.434,2.23,2.227,3.465,2.557,4,2.557a.716.716,0,0,0,.429-.106c.016-.011.03-.019.046-.03a1.77,1.77,0,0,0,.718-.882.435.435,0,0,0-.133-.376c-.737-.893-1.045-.938-1.1-.938a1.1,1.1,0,0,0-.335.125,2.291,2.291,0,0,1-1.041.289,3.07,3.07,0,0,1-2.1-1.132c-1.471-1.474-1.22-2.359-.844-3.142.121-.243.141-.3.121-.38-.03-.106-.178-.426-.938-1.049a.467.467,0,0,0-.312-.141C-15132.117-663.869-15132.562-663.4-15132.725-663.143Z" transform="translate(13750.982 3290.945)"/>
  </g>
</svg>
