<svg xmlns="http://www.w3.org/2000/svg" width="24" height="24" viewBox="0 0 24 24">
  <g id="Icon_Instagram" data-name="Icon/Instagram" transform="translate(535 -2800)">
    <rect id="Container" width="24" height="24" transform="translate(-535 2800)" fill="none"/>
    <path id="Instagram" d="M-14311.251-469.5a4.758,4.758,0,0,1-4.75-4.753v-10a4.755,4.755,0,0,1,4.75-4.75h10a4.755,4.755,0,0,1,4.75,4.75v10a4.758,4.758,0,0,1-4.75,4.753Zm-3.248-14.752v10a3.254,3.254,0,0,0,3.248,3.251h10a3.255,3.255,0,0,0,3.248-3.251v-10a3.252,3.252,0,0,0-3.248-3.248h-10A3.251,3.251,0,0,0-14314.5-484.251Zm3.606,5a4.647,4.647,0,0,1,4.643-4.642,4.647,4.647,0,0,1,4.642,4.642,4.649,4.649,0,0,1-4.642,4.642A4.649,4.649,0,0,1-14310.893-479.249Zm1.5,0a3.144,3.144,0,0,0,3.141,3.14,3.146,3.146,0,0,0,3.144-3.14,3.15,3.15,0,0,0-3.144-3.144A3.147,3.147,0,0,0-14309.391-479.249Zm8-4.121a1,1,0,0,1-1-1,1,1,0,0,1,1-1h.011a1,1,0,0,1,1,1,1,1,0,0,1-1,1Z" transform="translate(13783.25 3291.25)"/>
  </g>
</svg>
