<svg xmlns="http://www.w3.org/2000/svg" width="24" height="24" viewBox="0 0 24 24">
  <g id="Icon_Facebook" data-name="Icon/Facebook" transform="translate(541 -2757)">
    <rect id="Container" width="24" height="24" transform="translate(-541 2757)" fill="none"/>
    <path id="Facebook" d="M5.349,21.5H4.411a1.218,1.218,0,0,1-1.4-1.391V12.788H1.769l-.449,0A1.191,1.191,0,0,1,0,11.476C0,10.492,0,9.494,0,8.509A1.186,1.186,0,0,1,1.331,7.2H3.017c0-.146,0-.291,0-.434,0-.647,0-1.316.059-1.984A5.034,5.034,0,0,1,7.693.074C8.345.009,9,0,9.49,0c.237,0,.474,0,.711,0,.31,0,.62.006.929,0h.011a1.1,1.1,0,0,1,1.146,1.143c.009,1.009.009,2.033,0,3.043a1.131,1.131,0,0,1-1.229,1.155c-.451.01-.907.015-1.348.019l-.615.006H9.049c-.05,0-.1,0-.127,0a.561.561,0,0,0-.151.033.4.4,0,0,0-.009.077c-.022.543-.017,1.084-.012,1.657v.006h2.065a1.221,1.221,0,0,1,1.378,1.367c0,1.1,0,2.058,0,2.936a1.167,1.167,0,0,1-1.3,1.3q-.655,0-1.311,0H8.737V20a1.541,1.541,0,0,1-.351,1.161,1.555,1.555,0,0,1-1.163.341ZM4.512,20H7.237V12.009a.75.75,0,0,1,.75-.75h1.6l1.108,0c0-.788,0-1.645,0-2.607H8.005a.75.75,0,0,1-.75-.75c0-.25,0-.5,0-.743,0-.566-.01-1.151.013-1.729a1.544,1.544,0,0,1,1.5-1.542,2.658,2.658,0,0,1,.279-.013h.038l.62-.006c.359,0,.729-.007,1.094-.014.005-.779.005-1.566,0-2.345l-.6,0c-.233,0-.465,0-.7,0-.459,0-1.062.008-1.648.066A3.528,3.528,0,0,0,4.572,4.91c-.051.606-.052,1.216-.053,1.861,0,.293,0,.6-.007.9,0,.056,0,.112,0,.171,0,.036,0,.074,0,.113a.75.75,0,0,1-.75.75H1.5c0,.859,0,1.727,0,2.586.2,0,.4,0,.595,0H3.762a.75.75,0,0,1,.75.75Z" transform="translate(-535.146 2758.25)"/>
  </g>
</svg>
