<svg xmlns="http://www.w3.org/2000/svg" width="24" height="24" viewBox="0 0 24 24">
  <g id="Icon_Lenkedin" data-name="Icon/Lenkedin" transform="translate(563 -2800)">
    <rect id="Container" width="24" height="24" transform="translate(-563 2800)" fill="none"/>
    <path id="Lenkedin" d="M43.452,60.633H47.31V54.151a2.642,2.642,0,0,1,.127-.941,2.112,2.112,0,0,1,1.98-1.411c1.4,0,1.955,1.064,1.955,2.625v6.21H55.23V53.977c0-3.566-1.9-5.225-4.442-5.225a3.832,3.832,0,0,0-3.478,1.916v.04h-.026l.026-.04V49.025H43.452c.05,1.089,0,11.609,0,11.609m-2.135,0h0V49.024H37.457V60.633h3.859M39.388,47.439a2.159,2.159,0,1,0-.025,0h.025m4.065,14.694a1.5,1.5,0,0,1-1.069-.447,1.5,1.5,0,0,1-1.067.446H37.457a1.5,1.5,0,0,1-1.5-1.5V49.024a1.5,1.5,0,0,1,.661-1.244,3.527,3.527,0,0,1,.179-4.868,3.778,3.778,0,0,1,2.616-.984A3.5,3.5,0,0,1,43.07,45.4q0,.017,0,.033a3.439,3.439,0,0,1-.9,2.355,1.508,1.508,0,0,1,.217.182,1.5,1.5,0,0,1,1.068-.447H47.31a1.494,1.494,0,0,1,.9.3,6.067,6.067,0,0,1,6.85,1.184,7.078,7.078,0,0,1,1.666,4.966v6.656a1.5,1.5,0,0,1-1.5,1.5H51.372a1.5,1.5,0,0,1-1.5-1.5v-6.21a1.953,1.953,0,0,0-.194-1.053c-.019-.029-.049-.072-.261-.072-.1,0-.393,0-.582.457a2.122,2.122,0,0,0-.025.4v6.482a1.5,1.5,0,0,1-1.5,1.5H43.453Z" transform="translate(-597.23 2759.572)"/>
  </g>
</svg>
